<?xml version="1.0" encoding="UTF-8" standalone="no"?>
<svg
   xmlns:dc="http://purl.org/dc/elements/1.1/"
   xmlns:cc="http://creativecommons.org/ns#"
   xmlns:rdf="http://www.w3.org/1999/02/22-rdf-syntax-ns#"
   xmlns:svg="http://www.w3.org/2000/svg"
   xmlns="http://www.w3.org/2000/svg"
   viewBox="0 0 320.09332 93.32"
   height="93.32"
   width="320.09332"
   xml:space="preserve"
   id="svg2"
   version="1.1"><metadata
     id="metadata8"><rdf:RDF><cc:Work
         rdf:about=""><dc:format>image/svg+xml</dc:format><dc:type
           rdf:resource="http://purl.org/dc/dcmitype/StillImage" /></cc:Work></rdf:RDF></metadata><defs
     id="defs6" /><g
     transform="matrix(1.3333333,0,0,-1.3333333,0,93.32)"
     id="g10"><g
       transform="scale(0.1)"
       id="g12"><path
         id="path14"
         style="fill:#231f20;fill-opacity:1;fill-rule:nonzero;stroke:none"
         d="M 800.598,77.0391 V 607.27 H 947.473 V 77.0391 H 800.598 v 0" /><path
         id="path16"
         style="fill:#231f20;fill-opacity:1;fill-rule:nonzero;stroke:none"
         d="M 1024.55,77.0391 V 607.27 h 403.9 V 504.473 H 1171.42 V 395.059 h 236.45 V 292.234 H 1171.42 V 179.891 h 257.03 V 77.0391 h -403.9 v 0" /><path
         id="path18"
         style="fill:#231f20;fill-opacity:1;fill-rule:nonzero;stroke:none"
         d="M 1510.74,77.0391 V 607.27 h 403.8 V 504.473 H 1657.58 V 395.059 h 236.37 V 292.234 H 1657.58 V 179.891 h 256.96 V 77.0391 h -403.8 v 0" /><path
         id="path20"
         style="fill:#231f20;fill-opacity:1;fill-rule:nonzero;stroke:none"
         d="M 1996.78,77.0391 V 607.27 h 403.9 V 504.473 H 2143.74 V 395.059 h 236.39 V 292.234 H 2143.74 V 179.891 h 256.94 V 77.0391 h -403.9 v 0" /><path
         id="path22"
         style="fill:#231f20;fill-opacity:1;fill-rule:nonzero;stroke:none"
         d="m 335.059,288.953 c -1.946,-37.441 -2.422,-72.09 -5.188,-109.629 14.817,-1.347 31.539,-2.636 47.336,-0.332 l -4.711,104.629 -0.832,4.981 c -12.035,-0.469 -23.422,-0.957 -36.605,0.351 z m -92.547,105.133 c -18.25,-9.148 -45.102,-22.973 -42.145,-48.008 3.91,-13.668 18.711,-22.492 30.418,-28.117 64.735,-28.52 150.664,-29.492 219.012,-8.203 16.867,6.5 39.512,15.933 42.613,36.605 -0.183,17.078 -18.254,27.832 -31.25,34.367 v 0.809 c 4.528,1.797 9.738,3.399 14.43,3.895 v 0.461 c -22.895,4.093 -44.988,10.082 -67.16,15.949 4.265,-9.731 7.347,-19.989 10.906,-30.102 6.66,2.129 13.496,3.75 20.684,4.727 11.695,-4.543 28.433,-11.059 30.085,-25.684 1.301,-13.66 -13.656,-20.324 -23.109,-25.875 -50.121,-18.238 -106.523,-20.019 -158.805,-6.152 -14.437,4.551 -35.281,10.39 -37.074,28.781 10.254,24.203 36.766,29.242 58.903,35.121 -11.375,7.328 -22.95,13.824 -33.981,21.977 -11.906,-0.657 -22.793,-5.867 -33.527,-10.551 z m 110.75,146.051 -6.489,-20.832 -32.543,-93.207 c 8.149,-0.828 18.235,0 26.243,-0.828 v -0.766 l -4.758,-105.434 0.816,-1.109 c 10.41,-1.02 23.41,-1.547 34.016,0.269 v 1.661 l -4.242,102.261 0.633,3.461 28.632,0.485 c -14.281,37.73 -28.132,75.84 -41.468,114.039 h -0.84 z m -15.121,46.832 c 23.945,16.308 45.418,-6.492 63.968,-19.524 71.723,-57.726 139.407,-123.804 190.965,-198.422 6.512,-9.632 9.446,-24.585 3.614,-35.476 -13.372,-22.309 -31.407,-42.66 -48.504,-63.324 v -1.129 C 505.543,223.699 460.512,177.039 411.848,138.602 388.102,124.148 366.305,92.5898 335.715,112.137 266.063,163.035 199.414,226.316 142.906,294.188 c -9.578,14.921 -24.539,27.152 -31.195,44.074 -9.305,22.914 11.199,39.359 22.934,56.617 57.605,71.055 129.156,140.726 203.496,192.09 z m 60.027,67.863 -26.504,37.566 c -3.25,1.985 -7.309,5.258 -10.894,6.223 -7.821,3.387 -16.254,-0.707 -22.629,-5.551 L 290.164,630.586 C 213.215,535.281 122.113,446.277 22.7188,378.063 14.8633,371.926 3.17969,365.934 0.75,355.809 -1.85938,346.711 2.88281,339.199 8.52344,333.547 88.1133,278.719 164.215,213.641 231.938,139.426 c 12.027,-12.641 21.773,-25.199 33.531,-37.055 19.808,-26.3632 43.086,-52.9296 61.293,-81.2108 5.703,-5.9766 6.691,-15.77739 15.621,-18.69145 6.988,-2.4179687 15.621,-4.0625 22.285,0 l 6.633,6.66406 C 453.652,125.789 558.09,230.555 674.781,315.145 c 11.684,10.429 33.985,14.32 34.305,33.679 -0.828,8.93 -6.023,17.723 -13.695,22.61 l -1.914,0.308 C 633.43,412.594 577.48,458.789 524.77,511.195 l -58.25,60.852 c -23.598,26.168 -46.532,55.141 -68.352,82.785 z m -68.633,-53.523 c 23.414,18.222 52.871,3.089 72.574,-13.668 20.633,-15.77 42.121,-33.637 60.981,-51.903 l 3.43,-1.968 c 52.23,-48.457 100.738,-102.317 140.589,-159.262 6.461,-9.91 12.168,-21.133 8.567,-34.289 C 602.379,307.004 575.383,280.516 551.77,251.512 500.688,196.531 446.813,143.328 386.488,100.887 374.285,92.2578 357.832,84.2852 343.215,91.1406 298.813,114.383 261.371,152.449 222.516,187.137 177.441,228.934 132.207,277.59 98.0469,328.484 c -5.0742,7.149 -6.5039,15.954 -6.3555,25.371 4.3945,17.579 16.4216,32.04 27.8166,46.848 40.363,51.434 89.805,100.231 139.73,144.793 1.153,1.149 3.285,3.574 5.086,4.738 21.446,18.536 42.75,34.95 65.211,51.075 v 0" /><path
         id="path24"
         style="fill:#231f20;fill-opacity:1;fill-rule:evenodd;stroke:none"
         d="m 474.203,52.5898 h -5.055 v 6.4024 h 3.997 c 2.164,0 5.101,-0.2149 5.101,-2.9688 0,-2.9101 -1.5,-3.4336 -4.043,-3.4336 z m 10.067,2.8711 c 0,6.0704 -4.016,7.9844 -10.879,7.9844 h -9.914 V 36.9258 h 5.671 v 11.1484 h 2.7 l 6.101,-11.1484 h 6.762 l -6.844,11.6367 c 3.582,0.293 6.403,2.0313 6.403,6.8984 z M 473.246,31.2188 v 0.082 c -9.769,-0.082 -17.644,7.5156 -17.644,18.9023 0,11.3282 7.875,18.8672 17.644,18.8672 9.535,0 17.66,-7.539 17.66,-18.8672 0,-11.3867 -8.125,-18.9843 -17.66,-18.9843 z m 0,43.5937 c -13.094,0 -24.738,-9.0586 -24.738,-24.6094 0,-15.5859 11.644,-24.6875 24.738,-24.6875 13.008,0 24.676,9.1016 24.676,24.6875 0,15.5508 -11.668,24.6094 -24.676,24.6094" /></g></g></svg>